<svg width="42" height="42" viewBox="0 0 42 42" fill="none" xmlns="http://www.w3.org/2000/svg">
<path fill-rule="evenodd" clip-rule="evenodd" d="M26.1595 9.36816C23.4388 13.3797 14.4805 26.639 9.42285 34.1274C16.8668 32.4313 29.3186 29.509 30.9996 28.8366C33.3609 27.892 33.2665 25.6251 32.9831 24.6806C32.7801 24.0038 28.9878 15.227 26.1595 9.36816Z" fill="#4DC9FF"/>
<path d="M30.9942 28.824C29.3144 29.4959 16.8808 32.4142 9.43479 34.1109L9.12906 34.5636C9.07282 34.6628 8.95352 34.9011 8.92629 35.0609C8.22206 38.8195 11.6587 39.3038 12.7647 39.1194C13.8981 38.9305 37.5114 33.5467 39.8728 32.6022C42.2341 31.6576 42.1397 29.3908 41.8563 28.4462C41.5729 27.5017 34.3 10.7835 32.411 8.23323C30.5219 5.68299 27.7828 7.00534 26.9327 8.23323C26.8448 8.36013 26.5753 8.75633 26.1602 9.36835C28.9879 15.2271 32.7748 23.9917 32.9777 24.6681C33.261 25.6126 33.3555 27.8795 30.9942 28.824Z" fill="url(#paint0_linear_4998_31990)"/>
<path d="M23.5324 4.45918C21.6471 1.9066 18.9134 3.23016 18.0649 4.45918C17.3983 5.42491 6.24894 21.9748 0.463201 30.5661C0.238121 30.9003 0.111293 31.2698 0.0760149 31.4128C-0.174171 32.8866 0.221031 33.8449 0.854423 34.4523C0.899318 34.49 1.00608 34.5706 1.07394 34.5916L10.4636 38.7563C9.43152 38.2364 8.57551 37.1646 8.95121 35.1145C8.99216 34.8496 9.17002 34.5627 9.25383 34.4523L9.46266 34.1423C14.5139 26.6417 23.4444 13.3852 26.1551 9.37694C25.0362 7.05181 24.0677 5.18391 23.5324 4.45918Z" fill="url(#paint1_linear_4998_31990)"/>
<path opacity="0.8" fill-rule="evenodd" clip-rule="evenodd" d="M24.986 9.27344C22.3758 13.1222 14.0825 25.3965 8.94336 33.0052C16.4527 31.2864 27.8477 28.5998 29.4505 27.9586C31.8118 27.0141 31.7174 24.7472 31.434 23.8027C31.2398 23.1554 27.763 15.1001 24.986 9.27344Z" fill="url(#paint2_linear_4998_31990)"/>
<defs>
<linearGradient id="paint0_linear_4998_31990" x1="36.5621" y1="12.036" x2="21.3278" y2="45.9001" gradientUnits="userSpaceOnUse">
<stop offset="0.00349994" stop-color="#02A5FF"/>
<stop offset="0.358918" stop-color="#02A5FF"/>
<stop offset="0.494255" stop-color="#4674EC"/>
<stop offset="0.99562" stop-color="#3D0AA9"/>
</linearGradient>
<linearGradient id="paint1_linear_4998_31990" x1="25.4534" y1="3.60181" x2="1.59253" y2="39.4849" gradientUnits="userSpaceOnUse">
<stop stop-color="#3D0AA9"/>
<stop offset="1" stop-color="#6A24FF"/>
</linearGradient>
<linearGradient id="paint2_linear_4998_31990" x1="17.2794" y1="18.2333" x2="32.4867" y2="27.8848" gradientUnits="userSpaceOnUse">
<stop stop-color="white"/>
<stop offset="1" stop-color="white" stop-opacity="0.31"/>
</linearGradient>
</defs>
</svg>
