<svg width="42" height="42" viewBox="0 0 42 42" fill="none" xmlns="http://www.w3.org/2000/svg">
<g clip-path="url(#clip0_4995_31966)">
<path d="M37.2532 18.166L40.5735 16.2236L42.1077 18.918L38.7893 20.8584L42.1077 22.8008L40.5725 25.4941L37.2532 23.5518V27.4355H34.1838V23.5537L30.8674 25.4941L29.3323 22.8008L32.6516 20.8584L29.3313 18.918L30.8665 16.2236L34.1838 18.1641V14.2822H37.2532V18.166Z" fill="#232323"/>
<path d="M8.0918 14.2822V19.0908H12.9766V22.2031H8.0918V27.4355H4.88281V22.2031H0V19.0908H4.88281V14.2822H8.0918Z" fill="#232323"/>
<path fill-rule="evenodd" clip-rule="evenodd" d="M21.0935 27.8601C24.8694 27.8601 27.9304 24.7574 27.9304 20.9301C27.9304 17.1027 24.8694 14 21.0935 14C17.3174 14 14.2563 17.1027 14.2563 20.9301C14.2563 24.7574 17.3174 27.8601 21.0935 27.8601ZM21.0938 24.8361C23.2219 24.8361 24.9473 23.0873 24.9473 20.9301C24.9473 18.7728 23.2219 17.024 21.0938 17.024C18.9654 17.024 17.24 18.7728 17.24 20.9301C17.24 23.0873 18.9654 24.8361 21.0938 24.8361Z" fill="#232323"/>
</g>
<defs>
<clipPath id="clip0_4995_31966">
<rect width="42" height="14" fill="white" transform="translate(0 14)"/>
</clipPath>
</defs>
</svg>
