<svg width="67" height="24" viewBox="0 0 67 24" fill="none" xmlns="http://www.w3.org/2000/svg">
<rect width="67" height="24" rx="4" fill="#A2EBEB"/>
<path d="M12.3652 20.1494C10.2559 20.1494 8.92285 19.2119 8.79102 17.7178H10.6514C10.7832 18.4062 11.4424 18.7432 12.3945 18.7432C13.5078 18.7432 14.2402 18.2598 14.2402 17.0879V15.5645H14.1523C13.8594 16.1504 13.2295 16.8828 11.8525 16.8828C10.0215 16.8828 8.57129 15.5498 8.57129 12.957C8.57129 10.335 10.0215 8.94336 11.8672 8.94336C13.2734 8.94336 13.8594 9.77832 14.1523 10.3496H14.2402V9.0459H16.0859V17.1318C16.0859 19.168 14.5186 20.1494 12.3652 20.1494ZM12.3652 15.418C13.5664 15.418 14.2549 14.5098 14.2549 12.9863C14.2549 11.4775 13.5811 10.4668 12.3652 10.4668C11.1201 10.4668 10.4756 11.5361 10.4756 12.9863C10.4756 14.4512 11.1348 15.418 12.3652 15.418ZM17.498 17V9.0459H19.3145V10.3643H19.4023C19.6807 9.45605 20.457 8.92871 21.3652 8.92871C21.5703 8.92871 21.8633 8.94336 22.0391 8.97266V10.7012C21.8779 10.6426 21.4824 10.584 21.1748 10.584C20.1348 10.584 19.373 11.3018 19.373 12.3125V17H17.498ZM22.2646 14.7588C22.2646 12.9717 23.7441 12.4443 25.2236 12.3564C25.7729 12.3198 26.9155 12.2539 27.2598 12.2393V11.6094C27.2598 10.8184 26.7471 10.3643 25.8242 10.3643C24.9893 10.3643 24.4766 10.7451 24.3301 11.3164H22.5283C22.6602 9.96875 23.876 8.94336 25.8682 8.94336C27.377 8.94336 29.1201 9.55859 29.1201 11.6826V17H27.333V15.9014H27.2744C26.9229 16.5752 26.1758 17.1611 24.9307 17.1611C23.4072 17.1611 22.2646 16.3262 22.2646 14.7588ZM24.0664 14.7441C24.0664 15.4326 24.623 15.7842 25.4141 15.7842C26.542 15.7842 27.2744 15.0371 27.2744 14.1436V13.4844L25.5166 13.6016C24.623 13.6748 24.0664 14.041 24.0664 14.7441ZM30.5029 19.9883V9.0459H32.334V10.3496H32.4512C32.7441 9.77832 33.3301 8.94336 34.7363 8.94336C36.5674 8.94336 38.0176 10.3789 38.0176 13.0303C38.0176 15.6523 36.6113 17.1465 34.7363 17.1465C33.3594 17.1465 32.7441 16.3262 32.4512 15.7402H32.3779V19.9883H30.5029ZM32.334 13.0156C32.334 14.5684 33.0078 15.6084 34.2236 15.6084C35.4541 15.6084 36.1133 14.5244 36.1133 13.0156C36.1133 11.5361 35.4688 10.4668 34.2236 10.4668C33.0078 10.4668 32.334 11.4775 32.334 13.0156ZM40.9824 12.3418V17H39.1074V6.39453H40.9385V10.3936H41.041C41.4072 9.5 42.1689 8.94336 43.3994 8.94336C45.0547 8.94336 46.1387 10.0127 46.1387 11.9316V17H44.2783V12.2246C44.2783 11.1406 43.6924 10.5254 42.7109 10.5254C41.7002 10.5254 40.9824 11.1846 40.9824 12.3418ZM47.5361 17V9.0459H49.4111V17H47.5361ZM48.4883 7.91797C47.9023 7.91797 47.4043 7.46387 47.4043 6.89258C47.4043 6.33594 47.9023 5.88184 48.4883 5.88184C49.0889 5.88184 49.5723 6.33594 49.5723 6.89258C49.5723 7.46387 49.0889 7.91797 48.4883 7.91797ZM54.2949 17.1611C51.9219 17.1611 50.4863 15.4619 50.4863 13.0596C50.4863 10.6279 51.9658 8.94336 54.2949 8.94336C56.2285 8.94336 57.5762 10.0713 57.708 11.7852H55.9209C55.7744 11.0234 55.2178 10.4375 54.3096 10.4375C53.1523 10.4375 52.376 11.4189 52.376 13.0156C52.376 14.6562 53.1377 15.6377 54.3096 15.6377C55.1445 15.6377 55.7598 15.1543 55.9209 14.29H57.708C57.5615 15.9746 56.2871 17.1611 54.2949 17.1611Z" fill="black"/>
</svg>
