<svg width="15" height="22" viewBox="0 0 15 22" fill="none" xmlns="http://www.w3.org/2000/svg">
<path d="M7.75391 21.0352C3.78906 21.0352 0.890625 18.6836 0.78125 15.4023H4.25391C4.36328 17.0156 5.86719 18.1641 7.75391 18.1641C9.96875 18.1641 11.5547 16.5508 11.5547 14.3633C11.5547 12.0938 9.91406 10.4805 7.64453 10.4805C6.11328 10.4531 4.99219 11 4.36328 12.1758H1.05469L2.25781 0.964844H13.9609V3.94531H5.18359L4.58203 9.19531H4.77344C5.53906 8.32031 6.98828 7.69141 8.60156 7.69141C12.293 7.69141 15 10.4531 15 14.2539C15 18.2188 12.0195 21.0352 7.75391 21.0352Z" fill="#111111"/>
</svg>
