<svg width="38" height="38" viewBox="0 0 38 38" fill="none" xmlns="http://www.w3.org/2000/svg">
<path d="M12.8867 26.1953C9.48828 26.1953 7.45703 23.5586 7.45703 18.9297C7.45703 14.3203 9.48828 11.6641 12.8867 11.6641C16.2656 11.6641 18.3164 14.3203 18.3164 18.9297C18.3164 23.5586 16.2852 26.1953 12.8867 26.1953ZM12.8867 24.0664C14.6641 24.0664 15.7578 22.3281 15.7578 18.9297C15.7578 15.5508 14.6445 13.7734 12.8867 13.7734C11.1289 13.7734 10.0156 15.5508 10.0156 18.9297C10.0156 22.3281 11.1094 24.0664 12.8867 24.0664ZM19.9453 26V24.1641L24.9453 19.3398C26.3711 17.9141 27.1133 17.0742 27.1133 15.8828C27.1133 14.5742 26.0781 13.7344 24.6914 13.7344C23.2266 13.7344 22.2891 14.6523 22.3086 16.0781H19.8867C19.8672 13.4023 21.8789 11.6641 24.7109 11.6641C27.6016 11.6641 29.5547 13.3828 29.5547 15.7656C29.5547 17.3672 28.7734 18.6562 26 21.2734L23.4805 23.7734V23.8711H29.7695V26H19.9453Z" fill="black"/>
</svg>
