<svg width="38" height="38" viewBox="0 0 38 38" fill="none" xmlns="http://www.w3.org/2000/svg">
<path d="M12.8867 26.1953C9.48828 26.1953 7.45703 23.5586 7.45703 18.9297C7.45703 14.3203 9.48828 11.6641 12.8867 11.6641C16.2656 11.6641 18.3164 14.3203 18.3164 18.9297C18.3164 23.5586 16.2852 26.1953 12.8867 26.1953ZM12.8867 24.0664C14.6641 24.0664 15.7578 22.3281 15.7578 18.9297C15.7578 15.5508 14.6445 13.7734 12.8867 13.7734C11.1289 13.7734 10.0156 15.5508 10.0156 18.9297C10.0156 22.3281 11.1094 24.0664 12.8867 24.0664ZM25.2383 26.1953C22.4844 26.1758 19.7109 24.5352 19.7305 19.3203C19.7305 14.4766 21.9375 11.6641 25.3945 11.6641C28.1289 11.6641 30.0039 13.3828 30.3164 15.668H27.7969C27.543 14.5938 26.6836 13.8711 25.3945 13.8711C23.3438 13.8711 22.1914 15.6875 22.1914 18.6562H22.3281C23.0508 17.4453 24.418 16.7227 25.9609 16.7227C28.5 16.7227 30.4531 18.6367 30.4531 21.3125C30.4531 24.125 28.3633 26.2148 25.2383 26.1953ZM25.2383 24.1445C26.8203 24.1445 27.9922 22.9141 27.9922 21.3711C27.9922 19.8672 26.8398 18.6562 25.2773 18.6562C23.6953 18.6562 22.4844 19.9062 22.4648 21.3906C22.4844 22.875 23.6367 24.1445 25.2383 24.1445Z" fill="black"/>
</svg>
