<svg width="38" height="38" viewBox="0 0 38 38" fill="none" xmlns="http://www.w3.org/2000/svg">
<path d="M15.4141 11.8594V26H12.8555V14.3398H12.7773L9.47656 16.4492V14.125L12.9727 11.8594H15.4141ZM18.3516 26V24.1641L23.3516 19.3398C24.7773 17.9141 25.5195 17.0742 25.5195 15.8828C25.5195 14.5742 24.4844 13.7344 23.0977 13.7344C21.6328 13.7344 20.6953 14.6523 20.7148 16.0781H18.293C18.2734 13.4023 20.2852 11.6641 23.1172 11.6641C26.0078 11.6641 27.9609 13.3828 27.9609 15.7656C27.9609 17.3672 27.1797 18.6562 24.4062 21.2734L21.8867 23.7734V23.8711H28.1758V26H18.3516Z" fill="black"/>
</svg>
