<svg width="38" height="38" viewBox="0 0 38 38" fill="none" xmlns="http://www.w3.org/2000/svg">
<path d="M12.8867 26.1953C9.48828 26.1953 7.45703 23.5586 7.45703 18.9297C7.45703 14.3203 9.48828 11.6641 12.8867 11.6641C16.2656 11.6641 18.3164 14.3203 18.3164 18.9297C18.3164 23.5586 16.2852 26.1953 12.8867 26.1953ZM12.8867 24.0664C14.6641 24.0664 15.7578 22.3281 15.7578 18.9297C15.7578 15.5508 14.6445 13.7734 12.8867 13.7734C11.1289 13.7734 10.0156 15.5508 10.0156 18.9297C10.0156 22.3281 11.1094 24.0664 12.8867 24.0664ZM25.082 26.1953C22.0547 26.1953 19.9062 24.5547 19.8477 22.1719H22.4062C22.4844 23.3047 23.6172 24.0469 25.082 24.0469C26.6445 24.0469 27.7578 23.1875 27.7578 21.9375C27.7578 20.668 26.6641 19.75 24.8281 19.75H23.5586V17.7969H24.8281C26.332 17.7969 27.3867 16.957 27.3672 15.7266C27.3867 14.5352 26.4883 13.7344 25.1016 13.7344C23.7734 13.7344 22.6211 14.4766 22.582 15.668H20.1406C20.1992 13.2852 22.3477 11.6641 25.1211 11.6641C27.9922 11.6641 29.8477 13.4219 29.8281 15.5898C29.8477 17.1719 28.793 18.3242 27.25 18.6367V18.7539C29.2422 19.0273 30.375 20.2969 30.3555 22.0742C30.375 24.457 28.1484 26.1953 25.082 26.1953Z" fill="black"/>
</svg>
