<svg width="38" height="38" viewBox="0 0 38 38" fill="none" xmlns="http://www.w3.org/2000/svg">
<path d="M14.3867 26.1953C10.9883 26.1953 8.95703 23.5586 8.95703 18.9297C8.95703 14.3203 10.9883 11.6641 14.3867 11.6641C17.7656 11.6641 19.8164 14.3203 19.8164 18.9297C19.8164 23.5586 17.7852 26.1953 14.3867 26.1953ZM14.3867 24.0664C16.1641 24.0664 17.2578 22.3281 17.2578 18.9297C17.2578 15.5508 16.1445 13.7734 14.3867 13.7734C12.6289 13.7734 11.5156 15.5508 11.5156 18.9297C11.5156 22.3281 12.6094 24.0664 14.3867 24.0664ZM27.1875 11.8594V26H24.6289V14.3398H24.5508L21.25 16.4492V14.125L24.7461 11.8594H27.1875Z" fill="black"/>
</svg>
