<svg width="38" height="38" viewBox="0 0 38 38" fill="none" xmlns="http://www.w3.org/2000/svg">
<path d="M12.8867 26.1953C9.48828 26.1953 7.45703 23.5586 7.45703 18.9297C7.45703 14.3203 9.48828 11.6641 12.8867 11.6641C16.2656 11.6641 18.3164 14.3203 18.3164 18.9297C18.3164 23.5586 16.2852 26.1953 12.8867 26.1953ZM12.8867 24.0664C14.6641 24.0664 15.7578 22.3281 15.7578 18.9297C15.7578 15.5508 14.6445 13.7734 12.8867 13.7734C11.1289 13.7734 10.0156 15.5508 10.0156 18.9297C10.0156 22.3281 11.1094 24.0664 12.8867 24.0664ZM24.9648 11.6641C27.7383 11.6836 30.4727 13.3242 30.4922 18.5C30.4922 23.3828 28.2852 26.1953 24.8086 26.1953C22.0742 26.1953 20.1992 24.4961 19.8867 22.1523H22.4062C22.6602 23.2656 23.5195 23.9883 24.8086 23.9883C26.8594 23.9883 28.0117 22.1719 28.0312 19.1445H27.875C27.1523 20.375 25.8047 21.0977 24.2422 21.0977C21.7227 21.0977 19.7695 19.1836 19.75 16.5078C19.75 13.7344 21.8203 11.6445 24.9648 11.6641ZM24.9844 13.7148C23.4023 13.7148 22.2109 14.9453 22.2305 16.4492C22.2305 17.9727 23.3633 19.1641 24.9453 19.1641C26.5078 19.1641 27.7383 17.8945 27.7188 16.4297C27.7188 14.9844 26.5664 13.7148 24.9844 13.7148Z" fill="black"/>
</svg>
