<svg width="38" height="38" viewBox="0 0 38 38" fill="none" xmlns="http://www.w3.org/2000/svg">
<path d="M14.9141 11.8594V26H12.3555V14.3398H12.2773L8.97656 16.4492V14.125L12.4727 11.8594H14.9141ZM23.0664 26.1953C19.668 26.1953 17.6367 23.5586 17.6367 18.9297C17.6367 14.3203 19.668 11.6641 23.0664 11.6641C26.4453 11.6641 28.4961 14.3203 28.4961 18.9297C28.4961 23.5586 26.4648 26.1953 23.0664 26.1953ZM23.0664 24.0664C24.8438 24.0664 25.9375 22.3281 25.9375 18.9297C25.9375 15.5508 24.8242 13.7734 23.0664 13.7734C21.3086 13.7734 20.1953 15.5508 20.1953 18.9297C20.1953 22.3281 21.2891 24.0664 23.0664 24.0664Z" fill="black"/>
</svg>
