<svg width="38" height="38" viewBox="0 0 38 38" fill="none" xmlns="http://www.w3.org/2000/svg">
<path d="M13.3867 26.1953C9.98828 26.1953 7.95703 23.5586 7.95703 18.9297C7.95703 14.3203 9.98828 11.6641 13.3867 11.6641C16.7656 11.6641 18.8164 14.3203 18.8164 18.9297C18.8164 23.5586 16.7852 26.1953 13.3867 26.1953ZM13.3867 24.0664C15.1641 24.0664 16.2578 22.3281 16.2578 18.9297C16.2578 15.5508 15.1445 13.7734 13.3867 13.7734C11.6289 13.7734 10.5156 15.5508 10.5156 18.9297C10.5156 22.3281 11.6094 24.0664 13.3867 24.0664ZM20.582 26L26.7148 14.0859V13.9883H19.6055V11.8594H29.3516V14.0273L23.2188 26H20.582Z" fill="black"/>
</svg>
