<svg width="38" height="38" viewBox="0 0 38 38" fill="none" xmlns="http://www.w3.org/2000/svg">
<path d="M12.8867 26.1953C9.48828 26.1953 7.45703 23.5586 7.45703 18.9297C7.45703 14.3203 9.48828 11.6641 12.8867 11.6641C16.2656 11.6641 18.3164 14.3203 18.3164 18.9297C18.3164 23.5586 16.2852 26.1953 12.8867 26.1953ZM12.8867 24.0664C14.6641 24.0664 15.7578 22.3281 15.7578 18.9297C15.7578 15.5508 14.6445 13.7734 12.8867 13.7734C11.1289 13.7734 10.0156 15.5508 10.0156 18.9297C10.0156 22.3281 11.1094 24.0664 12.8867 24.0664ZM24.9648 26.1953C22.1328 26.1953 20.0625 24.5156 19.9844 22.1719H22.4648C22.543 23.3242 23.6172 24.1445 24.9648 24.1445C26.5469 24.1445 27.6797 22.9922 27.6797 21.4297C27.6797 19.8086 26.5078 18.6562 24.8867 18.6562C23.793 18.6367 22.9922 19.0273 22.543 19.8672H20.1797L21.0391 11.8594H29.3984V13.9883H23.1289L22.6992 17.7383H22.8359C23.3828 17.1133 24.418 16.6641 25.5703 16.6641C28.207 16.6641 30.1406 18.6367 30.1406 21.3516C30.1406 24.1836 28.0117 26.1953 24.9648 26.1953Z" fill="black"/>
</svg>
