<svg width="38" height="38" viewBox="0 0 38 38" fill="none" xmlns="http://www.w3.org/2000/svg">
<path d="M14.9141 11.8594V26H12.3555V14.3398H12.2773L8.97656 16.4492V14.125L12.4727 11.8594H14.9141ZM22.8711 26.1953C20.0391 26.1953 17.9688 24.5156 17.8906 22.1719H20.3711C20.4492 23.3242 21.5234 24.1445 22.8711 24.1445C24.4531 24.1445 25.5859 22.9922 25.5859 21.4297C25.5859 19.8086 24.4141 18.6562 22.793 18.6562C21.6992 18.6367 20.8984 19.0273 20.4492 19.8672H18.0859L18.9453 11.8594H27.3047V13.9883H21.0352L20.6055 17.7383H20.7422C21.2891 17.1133 22.3242 16.6641 23.4766 16.6641C26.1133 16.6641 28.0469 18.6367 28.0469 21.3516C28.0469 24.1836 25.918 26.1953 22.8711 26.1953Z" fill="black"/>
</svg>
