<svg width="38" height="38" viewBox="0 0 38 38" fill="none" xmlns="http://www.w3.org/2000/svg">
<path d="M12.3867 26.1953C8.98828 26.1953 6.95703 23.5586 6.95703 18.9297C6.95703 14.3203 8.98828 11.6641 12.3867 11.6641C15.7656 11.6641 17.8164 14.3203 17.8164 18.9297C17.8164 23.5586 15.7852 26.1953 12.3867 26.1953ZM12.3867 24.0664C14.1641 24.0664 15.2578 22.3281 15.2578 18.9297C15.2578 15.5508 14.1445 13.7734 12.3867 13.7734C10.6289 13.7734 9.51562 15.5508 9.51562 18.9297C9.51562 22.3281 10.6094 24.0664 12.3867 24.0664ZM19.1914 23.3633V21.332L25.3047 11.8594H28.4688V21.2734H30.3242V23.3633H28.4688V26H26.0469V23.3633H19.1914ZM21.7891 21.2734H26.0859V14.75H25.9297L21.7891 21.1758V21.2734Z" fill="black"/>
</svg>
