<svg width="38" height="38" viewBox="0 0 38 38" fill="none" xmlns="http://www.w3.org/2000/svg">
<path d="M14.9141 11.8594V26H12.3555V14.3398H12.2773L8.97656 16.4492V14.125L12.4727 11.8594H14.9141ZM22.9883 26.1953C19.9609 26.1953 17.8125 24.5547 17.7539 22.1719H20.3125C20.3906 23.3047 21.5234 24.0469 22.9883 24.0469C24.5508 24.0469 25.6641 23.1875 25.6641 21.9375C25.6641 20.668 24.5703 19.75 22.7344 19.75H21.4648V17.7969H22.7344C24.2383 17.7969 25.293 16.957 25.2734 15.7266C25.293 14.5352 24.3945 13.7344 23.0078 13.7344C21.6797 13.7344 20.5273 14.4766 20.4883 15.668H18.0469C18.1055 13.2852 20.2539 11.6641 23.0273 11.6641C25.8984 11.6641 27.7539 13.4219 27.7344 15.5898C27.7539 17.1719 26.6992 18.3242 25.1562 18.6367V18.7539C27.1484 19.0273 28.2812 20.2969 28.2617 22.0742C28.2812 24.457 26.0547 26.1953 22.9883 26.1953Z" fill="black"/>
</svg>
