<svg width="38" height="38" viewBox="0 0 38 38" fill="none" xmlns="http://www.w3.org/2000/svg">
<path d="M12.8867 26.1953C9.48828 26.1953 7.45703 23.5586 7.45703 18.9297C7.45703 14.3203 9.48828 11.6641 12.8867 11.6641C16.2656 11.6641 18.3164 14.3203 18.3164 18.9297C18.3164 23.5586 16.2852 26.1953 12.8867 26.1953ZM12.8867 24.0664C14.6641 24.0664 15.7578 22.3281 15.7578 18.9297C15.7578 15.5508 14.6445 13.7734 12.8867 13.7734C11.1289 13.7734 10.0156 15.5508 10.0156 18.9297C10.0156 22.3281 11.1094 24.0664 12.8867 24.0664ZM25.082 26.1953C21.9375 26.1953 19.7109 24.5156 19.7109 22.2109C19.7109 20.4141 21.0391 18.9492 22.7383 18.6758V18.5977C21.2539 18.2852 20.2383 16.9961 20.2383 15.4531C20.2383 13.2656 22.2891 11.6641 25.082 11.6641C27.8555 11.6641 29.9062 13.2656 29.9062 15.4531C29.9062 16.9961 28.8711 18.2852 27.4062 18.5977V18.6758C29.1055 18.9492 30.4531 20.4141 30.4531 22.2109C30.4531 24.5156 28.207 26.1953 25.082 26.1953ZM25.082 24.1836C26.7422 24.1836 27.8359 23.2852 27.8359 21.9766C27.8359 20.6484 26.6641 19.6719 25.082 19.6719C23.4805 19.6719 22.3086 20.6484 22.3281 21.9766C22.3086 23.2852 23.4023 24.1836 25.082 24.1836ZM25.082 17.7773C26.4492 17.7773 27.4258 16.918 27.4258 15.6875C27.4258 14.4961 26.4688 13.6562 25.082 13.6562C23.6758 13.6562 22.7188 14.4766 22.7188 15.6875C22.7188 16.918 23.6953 17.7773 25.082 17.7773Z" fill="black"/>
</svg>
