<svg width="50" height="24" viewBox="0 0 50 24" fill="none" xmlns="http://www.w3.org/2000/svg">
<rect width="50" height="24" rx="4" fill="#E4FF97"/>
<path d="M15.6758 6.89453H17.5947V13.8232C17.5947 16.0938 15.8662 17.6611 13.2881 17.6611C10.6953 17.6611 8.98145 16.0938 8.98145 13.8232V6.89453H10.8857V13.6621C10.8857 14.9951 11.8232 15.9619 13.2881 15.9619C14.7529 15.9619 15.6758 14.9951 15.6758 13.6621V6.89453ZM20.7793 6.89453L23.1084 10.791H23.1963L25.5547 6.89453H27.7227L24.4561 12.1973L27.7812 17.5H25.5693L23.1963 13.6328H23.1084L20.7354 17.5H18.5381L21.8926 12.1973L18.582 6.89453H20.7793ZM35.4189 6.89453H37.3379V13.8232C37.3379 16.0938 35.6094 17.6611 33.0312 17.6611C30.4385 17.6611 28.7246 16.0938 28.7246 13.8232V6.89453H30.6289V13.6621C30.6289 14.9951 31.5664 15.9619 33.0312 15.9619C34.4961 15.9619 35.4189 14.9951 35.4189 13.6621V6.89453ZM40.8301 6.89453V17.5H38.9258V6.89453H40.8301Z" fill="black"/>
</svg>
